<?xml version="1.0" encoding="utf-8"?>
<!-- Generator: Adobe Illustrator 25.4.1, SVG Export Plug-In . SVG Version: 6.00 Build 0)  -->
<svg version="1.1" id="Layer_1" xmlns="http://www.w3.org/2000/svg" xmlns:xlink="http://www.w3.org/1999/xlink" x="0px" y="0px"
	 viewBox="0 0 700.7 597.8" style="enable-background:new 0 0 700.7 597.8;" xml:space="preserve">
<style type="text/css">
	.st0{fill:#F2F2F2;}
	.st1{fill:#FFB6B6;}
	.st2{fill:#2F2E41;}
	.st3{fill:#E6E6E6;}
	.st4{fill:#3F3D56;}
	.st5{fill:#38B000;}
	.st6{fill:#0077FF;}
	.st7{fill:#BC4749;}
	.st8{fill:#CCCCCC;}
	.st9{fill:#CACACA;}
</style>
<path class="st0" d="M618.4,595.4l0-0.7c0.6-23.7,11.7-45.8,30.1-60.6c5.1-4.1,10.8-7.5,16.8-10.1l0.6-0.3l0.1,0.6
	c1.2,7.4,3,14.9,3.9,18.3l5.7-22.4l0.6-0.2c6-1.8,12.4,0.3,16.3,5.2c4,4.9,4.7,11.8,1.6,17.3c-1.3,2.5-2.7,5.1-3.9,7.6
	c-4.4,8.6-8.9,17.6-15.5,24.5c-10.2,10.6-24.6,15.9-39.3,14.6L618.4,595.4z"/>
<polygon class="st1" points="546.8,585.1 536.8,585.1 532,546.5 546.8,546.5 "/>
<path class="st2" d="M547.1,595.5l-30.7,0v-0.4c0-6.6,5.4-12,12-12h0l5.6-4.3l10.5,4.3h2.7L547.1,595.5z"/>
<polygon class="st1" points="650.2,556.9 642.3,563 614.9,535.5 626.6,526.5 "/>
<path class="st2" d="M656.9,564.9l-24.3,18.8l-0.2-0.3c-4.1-5.2-3.1-12.7,2.1-16.8l0,0l1.8-6.8l10.9-3.1l2.1-1.6L656.9,564.9z"/>
<path class="st2" d="M607,370.4c0,0-0.7,10.4-1.5,25.4c-0.1,2.4,0.7,5.1,0.5,7.8c-0.1,1.8-1.2,3.5-1.3,5.3c-0.1,1.9,1.4,3.7,1.3,5.7
	c-0.1,2-1.8,4.2-1.9,6.2c-1.1,21.6-5.1,47.5-1.1,54.8c2,3.6,32,53,32,53s-14,21-18,14c-5.3-9.2-46-52.5-46-60.8
	c0-8.2-9.4-70.1-9.4-70.1l-6.6,36.6l-3,7.2l0.9,4.3l-1.9,5.7l-0.1,5.7l-1.9,10.6c0,0,5.7,82.2,2.5,84.5c-3.2,2.3-18.8,6.4-20.6,2.3
	c-1.8-4.1-8.8-85.8-8.8-85.8s-1.9-37.4-4-72.2c-0.1-2-1.5-4.5-1.7-6.5c-0.1-2.3,0.8-5.3,0.7-7.5c-0.1-2.6-1.3-4.4-1.4-6.8
	c-0.8-19-1-34,0.5-36.3c4.6-6.9,8.7-12.4,8.7-12.4s65.6-16.1,82.1,4.6V370.4z"/>
<path class="st3" d="M548,173.5l15.8-0.9l11.9,6.5l33.1,187.7c0,0-33.9,15.7-54.9,9.7s-43.1-5.7-43.1-5.7L527,191.5l13-12L548,173.5
	z"/>
<path class="st4" d="M574.4,177.5l24.5,10c7.7,0.4,14.2,6,15.6,13.7l-1.6,48.4l-8.8,23l6.3,52.4l-3.3,6.6l2.8,6.7
	c-4.2,6.8-3.3,15.7-0.8,25.3h-3l-6-1c0,0-13.2,4.6-15.9-11.9c-7.1-43.1-11.1-24.1-11.1-24.1l-3.5-133.8L574.4,177.5z"/>
<path class="st4" d="M541,177.5l-22.9,24c-7.7,0.4-14.2,6-15.6,13.7l9.5,74.4l-4.4,28.5l2.4,6.5l-1.8,7.3l2.8,6.7l-2,9l3,13l15-4
	l-0.1-10.7l4-145L541,177.5z"/>
<path class="st1" d="M464.7,300.8l-31.2,22.6c-3.8,0.2-6.6,3.4-6.4,7.1c0.2,3.8,3.4,6.6,7.1,6.4c2.4-0.1,4.6-1.5,5.7-3.7l42.4-22.6
	L464.7,300.8z"/>
<path class="st4" d="M508,205.5c-5.9,2.7-20.5,72.7-24.8,74.1s-2.7,1.3-3.3,2.5s-0.7,6.8-4.9,7.4s-25.9,20.5-25.9,20.5l5.5,18.4
	c0,0,41.9-23.9,53.5-37.2c11.6-13.3,17.8-81.4,17.8-81.4l1.2-6.8C527.1,203,513.9,202.8,508,205.5z"/>
<path class="st1" d="M602,291.5l-27.8,26.7c-3.7,0.7-6.1,4.3-5.4,8c0.7,3.7,4.3,6.1,8,5.4c2.4-0.5,4.4-2.2,5.2-4.5l38.9-28.2
	L602,291.5z"/>
<path class="st4" d="M606,211.5c-5.5,3.5,15.4,54.5,11.3,56.6s-2.5,1.6-2.9,2.9c-0.4,1.3,0.2,6.8-3.8,8s-22.8,23.9-22.8,23.9l8,17.5
	c0,0,38.2-29.5,47.9-44.2s3.4-19.7,3.4-19.7c-11.9-25.4-23.1-66.8-40-64C607,192.5,611.5,208,606,211.5z"/>
<circle class="st1" cx="551.4" cy="142.7" r="26.8"/>
<path class="st2" d="M578.5,160c0,0-5.9,1.6-9.3,2.5c0.2-2.6,1.3-5,1.8-7.5c0.6-2.5,0.4-5.4-1.4-7.2s-5.7-1.1-6,1.5
	c-1.6-3.4-3.1-6.7-4.7-10.1c-4.5,9.3-13.7,1.4-23.7,3.7c-5.1,1.2-11.5,0.7-14.2-3.8c1.5-1.3,2.8-2.8,3.8-4.5
	c-1.6,0.5-3.2,0.7-4.8,0.6c0.1-3.3,1.7-6.3,4.5-8.1c1.4-0.9-2.1-4.3-0.9-5.5c2.6-2.4,4.3-0.8,5.8-4c2-4,6.1-6.5,10.6-6.5
	c4.4,0.1,12.2,0.1,13.9,4.1c5.4-3.6,13-2.5,18.3,1.2c4.4,3.1,9.4,12.4,10.5,17.7C583.8,139.3,581.3,155.4,578.5,160z"/>
<path class="st5" d="M246.5,101H74.9c-6.4,0.1-11.8-4.8-12.3-11.2c-0.4-6.6,4.6-12.3,11.2-12.8c0.3,0,0.5,0,0.8,0h172
	c6.6,0,12,5.4,12,12S253.1,101,246.5,101L246.5,101z"/>
<path class="st3" d="M345.2,120.5H63c-0.6,0-1-0.4-1-1s0.4-1,1-1h282.2c0.6,0,1,0.4,1,1S345.8,120.5,345.2,120.5z"/>
<path class="st4" d="M333.5,101.5h-259C67.6,101.5,62,95.9,62,89s5.6-12.5,12.5-12.5h259c6.9,0,12.5,5.6,12.5,12.5
	S340.4,101.5,333.5,101.5z M74.5,78.5C68.7,78.5,64,83.2,64,89s4.7,10.5,10.5,10.5h259c5.8,0,10.5-4.7,10.5-10.5
	c0-5.8-4.7-10.5-10.5-10.5H74.5z"/>
<path class="st6" d="M169.5,195H74.9c-6.4,0.1-11.8-4.8-12.3-11.2c-0.4-6.6,4.6-12.3,11.2-12.8c0.3,0,0.5,0,0.8,0h95
	c6.6,0,12,5.4,12,12S176.1,195,169.5,195L169.5,195z"/>
<path class="st3" d="M345.2,214.5H63c-0.6,0-1-0.4-1-1s0.4-1,1-1h282.2c0.6,0,1,0.4,1,1S345.8,214.5,345.2,214.5z"/>
<path class="st4" d="M333.5,195.5h-259c-6.9,0-12.5-5.6-12.5-12.5s5.6-12.5,12.5-12.5h259c6.9,0,12.5,5.6,12.5,12.5
	S340.4,195.5,333.5,195.5z M74.5,172.5c-5.8,0-10.5,4.7-10.5,10.5s4.7,10.5,10.5,10.5h259c5.8,0,10.5-4.7,10.5-10.5
	s-4.7-10.5-10.5-10.5H74.5z"/>
<path class="st7" d="M296.5,289H74.9c-6.4,0.1-11.8-4.8-12.3-11.2c-0.4-6.6,4.6-12.3,11.2-12.8c0.3,0,0.5,0,0.8,0h222
	c6.6,0,12,5.4,12,12S303.1,289,296.5,289L296.5,289z"/>
<path class="st3" d="M345.2,308.5H63c-0.6,0-1-0.4-1-1s0.4-1,1-1h282.2c0.6,0,1,0.4,1,1S345.8,308.5,345.2,308.5z"/>
<path class="st4" d="M333.5,289.5h-259c-6.9,0-12.5-5.6-12.5-12.5s5.6-12.5,12.5-12.5h259c6.9,0,12.5,5.6,12.5,12.5
	S340.4,289.5,333.5,289.5z M74.5,266.5c-5.8,0-10.5,4.7-10.5,10.5s4.7,10.5,10.5,10.5h259c5.8,0,10.5-4.7,10.5-10.5
	s-4.7-10.5-10.5-10.5H74.5z"/>
<polygon class="st8" points="230.2,88.8 228.2,88.8 228.2,11.8 372.9,11.8 372.9,13.8 230.2,13.8 "/>
<circle class="st8" cx="379.1" cy="11.9" r="11.9"/>
<polygon class="st8" points="160.8,182.8 162.8,182.8 162.8,138.8 18.1,138.8 18.1,140.8 160.8,140.8 "/>
<circle class="st8" cx="11.9" cy="138.9" r="11.9"/>
<polygon class="st8" points="296.2,280.2 294.2,280.2 294.2,335.2 416.9,335.2 416.9,333.2 296.2,333.2 "/>
<circle class="st8" cx="423.1" cy="335.1" r="11.9"/>
<path class="st9" d="M699.6,597.5l-271.8,0.3c-0.7,0-1.2-0.5-1.2-1.2s0.5-1.2,1.2-1.2c0,0,0,0,0,0l271.8-0.3c0.7,0,1.2,0.5,1.2,1.2
	C700.7,596.9,700.2,597.5,699.6,597.5z"/>
<path class="st3" d="M590.1,177.5c-1.3-2-4-2.7-6-1.4c1.5-2,0.4-5.5-1.9-6.9c-2.6-1.6-5.9-1.3-9-1l-25,2.6c-2.9,0.3-5.8,0.6-8.4,2
	s-4.7,4-4.5,6.9c-2-0.7-4-1-6.1-0.8c-2.1,0.3-4.1,1.8-4.3,3.9c-0.4,3.3,3.6,5.2,6.8,6.1c6,1.7,11.9,3.4,17.9,5.1l-1.8,0.4
	c11.7,1,23.5-0.7,34.5-5c2.5-1,5-2.2,6.8-4.2S591.5,179.8,590.1,177.5z"/>
</svg>
